<svg width="96" height="70" viewBox="0 0 96 70" fill="none" xmlns="http://www.w3.org/2000/svg">
<path fill-rule="evenodd" clip-rule="evenodd" d="M63.4714 0.0030083L57.9051 1.1837e-06C53.5107 -0.00237286 49.9465 3.56662 49.9441 7.97157L49.9297 34.7471C49.9273 39.1521 53.4878 42.725 57.8822 42.7273L84.9047 42.7419C89.2991 42.7443 92.8634 39.1753 92.8657 34.7703L92.8802 7.99478C92.8825 3.58982 89.322 0.0169741 84.9277 0.0145999L79.3391 0.0115808L79.339 0.0159429C79.3367 4.40821 75.7826 7.96691 71.4009 7.96455C67.0192 7.96219 63.469 4.39963 63.4714 0.00737044V0.0030083Z" fill="white"/>
<path fill-rule="evenodd" clip-rule="evenodd" d="M11.4574 42.7273C7.61235 42.7253 4.49696 39.599 4.49902 35.7447L4.51449 6.97512C4.51657 3.12079 7.63531 -0.00207505 11.4804 1.03454e-06L40.4921 0.0156757C44.3372 0.017753 47.4526 3.14399 47.4505 6.99833L47.4494 9.12661C41.6812 10.2521 37.3256 15.3425 37.3224 21.4543C37.3191 27.5661 41.6691 32.6611 47.4361 33.7929L47.435 35.7678C47.433 39.6222 44.3143 42.745 40.4691 42.743L33.9107 42.7394C33.828 38.421 30.3111 34.9446 25.9827 34.9423C21.6543 34.9399 18.1335 38.4125 18.0462 42.7309L11.4574 42.7273Z" fill="#555CFC"/>
<path d="M6.58362 55.2852H9.60692V65.3967C9.60692 66.3314 9.3974 67.1433 8.97828 67.8325C8.56386 68.5217 7.98697 69.0527 7.24762 69.4257C6.50827 69.7986 5.64883 69.9851 4.6693 69.9851C3.7981 69.9851 3.00694 69.8317 2.29584 69.5248C1.58945 69.2132 1.02905 68.7412 0.614639 68.1087C0.200223 67.4714 -0.00463003 66.6712 7.93744e-05 65.7082H3.04461C3.05403 66.0906 3.13173 66.4187 3.27772 66.6925C3.42842 66.9615 3.63327 67.1692 3.89228 67.3156C4.15599 67.4572 4.4668 67.528 4.82471 67.528C5.20145 67.528 5.51932 67.4478 5.77834 67.2873C6.04205 67.1221 6.2422 66.8813 6.37876 66.565C6.51533 66.2487 6.58362 65.8593 6.58362 65.3967V55.2852ZM16.9816 69.9993C15.8844 69.9993 14.9355 69.7656 14.1349 69.2982C13.339 68.8262 12.7245 68.17 12.2912 67.3297C11.858 66.4848 11.6414 65.5052 11.6414 64.3912C11.6414 63.2677 11.858 62.2858 12.2912 61.4455C12.7245 60.6006 13.339 59.9444 14.1349 59.4771C14.9355 59.005 15.8844 58.769 16.9816 58.769C18.0789 58.769 19.0254 59.005 19.8213 59.4771C20.622 59.9444 21.2388 60.6006 21.672 61.4455C22.1053 62.2858 22.3219 63.2677 22.3219 64.3912C22.3219 65.5052 22.1053 66.4848 21.672 67.3297C21.2388 68.17 20.622 68.8262 19.8213 69.2982C19.0254 69.7656 18.0789 69.9993 16.9816 69.9993ZM16.9958 67.6625C17.495 67.6625 17.9117 67.5209 18.2461 67.2377C18.5805 66.9498 18.8324 66.558 19.002 66.0623C19.1762 65.5666 19.2632 65.0025 19.2632 64.37C19.2632 63.7374 19.1762 63.1733 19.002 62.6776C18.8324 62.182 18.5805 61.7902 18.2461 61.5022C17.9117 61.2142 17.495 61.0703 16.9958 61.0703C16.4919 61.0703 16.0681 61.2142 15.7243 61.5022C15.3852 61.7902 15.1286 62.182 14.9544 62.6776C14.7848 63.1733 14.7 63.7374 14.7 64.37C14.7 65.0025 14.7848 65.5666 14.9544 66.0623C15.1286 66.558 15.3852 66.9498 15.7243 67.2377C16.0681 67.5209 16.4919 67.6625 16.9958 67.6625ZM24.3352 69.7868V55.2852H27.3443V60.7375H27.4362C27.5681 60.4448 27.7588 60.1474 28.0084 59.8453C28.2626 59.5384 28.5923 59.2836 28.9973 59.0806C29.407 58.8728 29.9156 58.769 30.5231 58.769C31.3142 58.769 32.0442 58.9767 32.7129 59.3921C33.3816 59.8028 33.9161 60.4235 34.3164 61.2544C34.7168 62.0805 34.9169 63.1167 34.9169 64.3629C34.9169 65.576 34.7214 66.6004 34.3306 67.4359C33.9444 68.2668 33.4169 68.897 32.7483 69.3266C32.0843 69.7514 31.3402 69.9639 30.5161 69.9639C29.9321 69.9639 29.4353 69.8671 29.0256 69.6735C28.6206 69.4799 28.2886 69.2369 28.0296 68.9441C27.7706 68.6467 27.5728 68.3471 27.4362 68.0449H27.302V69.7868H24.3352ZM27.2808 64.3487C27.2808 64.9954 27.3703 65.5595 27.5492 66.041C27.7281 66.5226 27.9872 66.8978 28.3263 67.1669C28.6653 67.4312 29.0774 67.5634 29.5625 67.5634C30.0522 67.5634 30.4667 67.4288 30.8057 67.1598C31.1448 66.886 31.4014 66.5083 31.5756 66.0269C31.7546 65.5406 31.8441 64.9812 31.8441 64.3487C31.8441 63.7208 31.7569 63.1685 31.5827 62.6918C31.4084 62.215 31.1518 61.842 30.8128 61.573C30.4737 61.304 30.0569 61.1694 29.5625 61.1694C29.0726 61.1694 28.6583 61.2992 28.3192 61.5589C27.9848 61.8185 27.7281 62.1867 27.5492 62.6634C27.3703 63.1402 27.2808 63.702 27.2808 64.3487Z" fill="#D9D9D9"/>
<path d="M36.9805 55.2852H40.7526L44.7366 65.0285H44.9062L48.8902 55.2852H52.6623V69.7868H49.6955V60.348H49.5754L45.8316 69.716H43.8112L40.0674 60.3127H39.9473V69.7868H36.9805V55.2852ZM58.2198 69.9922C57.5276 69.9922 56.9107 69.8717 56.3691 69.6311C55.8275 69.3855 55.399 69.0244 55.0835 68.5476C54.7727 68.0661 54.6172 67.4666 54.6172 66.7491C54.6172 66.1449 54.7279 65.6374 54.9492 65.2267C55.1706 64.816 55.472 64.4856 55.8534 64.2354C56.2348 63.9852 56.6681 63.7964 57.1531 63.6689C57.643 63.5415 58.1563 63.4518 58.6931 63.3999C59.3241 63.3338 59.8328 63.2724 60.2189 63.2158C60.6051 63.1544 60.8853 63.0647 61.0595 62.9467C61.2338 62.8286 61.3209 62.654 61.3209 62.4227V62.3802C61.3209 61.9318 61.1796 61.5848 60.897 61.3393C60.6192 61.0939 60.2236 60.9712 59.7103 60.9712C59.1688 60.9712 58.7378 61.0915 58.4176 61.3323C58.0974 61.5683 57.8855 61.8657 57.7818 62.2245L54.9986 61.9979C55.14 61.337 55.4178 60.7658 55.8322 60.2843C56.2467 59.7981 56.7812 59.4251 57.4357 59.1655C58.095 58.9011 58.858 58.769 59.7245 58.769C60.3272 58.769 60.904 58.8398 61.4551 58.9814C62.0107 59.123 62.5029 59.3425 62.9314 59.6399C63.3647 59.9373 63.7061 60.3197 63.9557 60.787C64.2053 61.2496 64.33 61.8043 64.33 62.451V69.7868H61.4762V68.2786H61.3915C61.2172 68.6184 60.9841 68.9182 60.6922 69.1778C60.4002 69.4328 60.0494 69.6334 59.6396 69.7797C59.2299 69.9213 58.7567 69.9922 58.2198 69.9922ZM59.0817 67.9104C59.5242 67.9104 59.9151 67.823 60.2542 67.6484C60.5932 67.469 60.8594 67.2282 61.0524 66.9261C61.2455 66.6241 61.3421 66.2818 61.3421 65.8995V64.7452C61.2479 64.8066 61.1184 64.8633 60.9536 64.9151C60.7935 64.9624 60.6121 65.0072 60.4096 65.0497C60.2071 65.0875 60.0046 65.1229 59.8021 65.1559C59.5996 65.1842 59.4159 65.2102 59.2511 65.2338C58.898 65.2857 58.5895 65.3684 58.3258 65.4816C58.0621 65.595 57.8572 65.7483 57.7112 65.9419C57.5652 66.1308 57.4922 66.3667 57.4922 66.65C57.4922 67.0606 57.6406 67.3746 57.9373 67.5917C58.2386 67.8042 58.6201 67.9104 59.0817 67.9104ZM72.4359 58.9106V61.1764H65.9018V58.9106H72.4359ZM67.3852 56.3049H70.3944V66.4446C70.3944 66.7232 70.4368 66.9403 70.5216 67.096C70.6063 67.2472 70.7241 67.3534 70.8748 67.4147C71.0302 67.4761 71.2091 67.5068 71.4116 67.5068C71.5529 67.5068 71.6942 67.4949 71.8354 67.4714C71.9768 67.443 72.0851 67.4218 72.1604 67.4076L72.6337 69.6523C72.483 69.6995 72.2711 69.7538 71.998 69.8151C71.7247 69.8812 71.3927 69.9213 71.0019 69.9354C70.2767 69.9639 69.641 69.8671 69.0946 69.6452C68.5531 69.4233 68.1317 69.0787 67.8302 68.6114C67.5288 68.1441 67.3805 67.554 67.3852 66.8412V56.3049ZM79.1819 69.9993C78.0706 69.9993 77.1145 69.7632 76.314 69.2911C75.5181 68.8143 74.9059 68.1534 74.4774 67.3085C74.0535 66.4635 73.8416 65.4911 73.8416 64.3912C73.8416 63.2771 74.0559 62.2999 74.4844 61.4597C74.9177 60.6147 75.5323 59.9562 76.3281 59.4842C77.1239 59.0074 78.0706 58.769 79.1678 58.769C80.1143 58.769 80.9431 58.9413 81.6543 59.2859C82.3653 59.6305 82.9281 60.1144 83.3425 60.7375C83.757 61.3606 83.9853 62.0923 84.0277 62.9325H81.188C81.1079 62.3897 80.8961 61.953 80.5523 61.6226C80.2132 61.2874 79.7682 61.1198 79.2172 61.1198C78.751 61.1198 78.3437 61.2473 77.9952 61.5022C77.6514 61.7524 77.383 62.1182 77.1898 62.5997C76.9968 63.0812 76.9002 63.6642 76.9002 64.3487C76.9002 65.0426 76.9944 65.6327 77.1828 66.1189C77.3759 66.6051 77.6467 66.9757 77.9952 67.2306C78.3437 67.4856 78.751 67.613 79.2172 67.613C79.561 67.613 79.8695 67.5422 80.1426 67.4005C80.4204 67.2589 80.6488 67.0536 80.8278 66.7845C81.0115 66.5107 81.1315 66.1826 81.188 65.8003H84.0277C83.9806 66.6311 83.7546 67.3628 83.3496 67.9953C82.9493 68.6232 82.3959 69.1141 81.6896 69.4682C80.9832 69.8222 80.1473 69.9993 79.1819 69.9993ZM88.9636 63.499V69.7868H85.9544V55.2852H88.8788V60.8295H89.006C89.2509 60.1875 89.6464 59.6848 90.1927 59.3213C90.739 58.9531 91.4242 58.769 92.2483 58.769C93.0018 58.769 93.6587 58.9342 94.2191 59.2646C94.7842 59.5903 95.2222 60.06 95.5331 60.6738C95.8485 61.2827 96.0039 62.012 95.9992 62.8617V69.7868H92.99V63.3999C92.9947 62.7295 92.8252 62.2079 92.4814 61.8349C92.1424 61.4621 91.6668 61.2756 91.0545 61.2756C90.6448 61.2756 90.2822 61.363 89.9667 61.5376C89.6559 61.7122 89.411 61.9671 89.232 62.3023C89.0577 62.6327 88.9683 63.0316 88.9636 63.499Z" fill="#555CFC"/>
</svg>
